<?xml version="1.0" encoding="UTF-8" standalone="no"?>
<!-- Generator: Adobe Illustrator 16.0.4, SVG Export Plug-In . SVG Version: 6.00 Build 0)  -->

<svg
   version="1.1"
   id="Layer_1"
   x="0px"
   y="0px"
   width="350"
   height="350"
   viewBox="0 0 350 349.99998"
   enable-background="new 0 0 306 344.35"
   xml:space="preserve"
   sodipodi:docname="Website-Initials-Logo.svg"
   inkscape:version="1.3.2 (091e20e, 2023-11-25, custom)"
   inkscape:export-filename="Website-Initials-Logo-16.png"
   inkscape:export-xdpi="4.3885713"
   inkscape:export-ydpi="4.3885713"
   xmlns:inkscape="http://www.inkscape.org/namespaces/inkscape"
   xmlns:sodipodi="http://sodipodi.sourceforge.net/DTD/sodipodi-0.dtd"
   xmlns="http://www.w3.org/2000/svg"
   xmlns:svg="http://www.w3.org/2000/svg"><defs
   id="defs6" /><sodipodi:namedview
   id="namedview6"
   pagecolor="#ffffff"
   bordercolor="#000000"
   borderopacity="0.25"
   inkscape:showpageshadow="2"
   inkscape:pageopacity="0.0"
   inkscape:pagecheckerboard="0"
   inkscape:deskcolor="#d1d1d1"
   inkscape:zoom="0.25"
   inkscape:cx="-578"
   inkscape:cy="766"
   inkscape:window-width="2560"
   inkscape:window-height="1417"
   inkscape:window-x="-8"
   inkscape:window-y="-8"
   inkscape:window-maximized="1"
   inkscape:current-layer="Layer_1" />


<g
   id="g6"
   inkscape:label="Background"
   sodipodi:insensitive="true"><path
     fill="#00599c"
     d="m 324.107,261.0875 c 2.401,-4.159 3.893,-8.845 3.893,-13.053 v -146.069 c 0,-4.208 -1.49,-8.893 -3.892,-13.052 L 175,175.0005 Z"
     id="path1"
     style="display:inline;fill:#009e00;fill-opacity:1"
     sodipodi:insensitive="true" /><path
     fill="#004482"
     d="m 188.25,344.0185 126.5,-73.034 c 3.644,-2.104 6.956,-5.737 9.357,-9.897 L 175,175.0005 25.893,261.0885 c 2.401,4.159 5.714,7.793 9.357,9.896 l 126.5,73.034 c 7.287,4.208 19.213,4.208 26.5,0 z"
     id="path2"
     style="display:inline;fill:#008262;fill-opacity:1"
     sodipodi:insensitive="true" /><path
     fill="#659ad2"
     d="m 324.108,88.9125 c -2.402,-4.16 -5.715,-7.793 -9.358,-9.897 L 188.25,5.9815 c -7.287,-4.208 -19.213,-4.208 -26.5,0 L 35.25,79.0155 C 27.962,83.2225 22,93.5505 22,101.9655 v 146.069 c 0,4.208 1.491,8.894 3.893,13.053 L 175,175.0005 Z"
     id="path3"
     style="display:inline;fill:#659bd2;fill-opacity:1"
     sodipodi:insensitive="true" /></g>



<g
   id="g8"
   inkscape:label="Initials"
   transform="matrix(1.1986455,0,0,1.1986455,-34.762961,-34.762964)"
   sodipodi:insensitive="true"><path
     style="font-size:192px;line-height:1;font-family:Symap;-inkscape-font-specification:Symap;text-align:end;letter-spacing:0px;text-anchor:end;fill:#ffffff;stroke-width:0.430361"
     d="m 248.54687,164.17187 -34.125,-16.3125 h -25.03125 l -5.625,2.71875 7.125,3.5625 8.15625,9.375 v 42.84375 l -13.96875,-40.78125 -6.1875,-6 v 36.46875 l 7.3125,56.0625 h -21.9375 c 0,-1.625 2.28125,-20.375 6.84375,-56.25 v -36.28125 l -6.09375,6 -14.0625,40.59375 v -42.65625 l 8.15625,-9.46875 7.21875,-3.46875 -5.71875,-2.71875 h -24.9375 l -34.21874,16.3125 31.78124,-30.46875 h 15.84375 l 19.3125,9.375 -3.46875,-10.125 -36.46875,-35.062495 36.09375,17.250005 7.21875,14.24999 3.28125,9.28125 3.1875,-9.28125 7.40625,-14.24999 36.09375,-17.250005 -36.5625,35.062495 -3.46875,10.125 19.21875,-9.375 h 15.9375 z"
     id="text7"
     inkscape:label="L (altered lowercase in Symap)"
     aria-label="a"
     sodipodi:nodetypes="cccccccccccccccccccccccccccccccccccccc"
     sodipodi:insensitive="true" /><path
     style="font-size:192px;line-height:1;font-family:Symap;-inkscape-font-specification:Symap;text-align:end;letter-spacing:0px;text-anchor:end;display:inline;fill:#ffffff;stroke-width:0.430361"
     d="m 293.125,188.54688 -6.84375,26.90625 -7.125,13.59375 -13.875,19.96875 -13.875,13.59375 -20.625,13.40625 -14.0625,6.84375 -27.84375,6.65625 h -27.75 l -27.84375,-6.65625 -14.0625,-6.84375 -20.624998,-13.40625 -13.875004,-13.59375 -13.96875,-19.96875 -7.03125,-13.59375 -6.84375,-26.90625 v -27.09375 l 6.84375,-26.90625 7.03125,-13.59375 13.96875,-20.0625 13.875004,-13.593753 20.624998,-13.312505 14.0625,-6.9375 27.84375,-6.5625 h 27.75 l 27.84375,6.5625 14.0625,6.9375 20.625,13.312505 13.875,13.593753 13.875,20.0625 7.125,13.5 6.84375,27 z m -7.78125,-0.9375 v -25.21875 l -6.65625,-25.125 -6.28125,-12.5625 L 259.375,105.67188 246.4375,93.109377 226.75,80.546877 213.90625,74.359372 187.9375,67.890622 h -25.875 l -25.96875,6.46875 -12.84375,6.187505 -19.6875,12.5625 -13.031248,12.562503 -12.937504,19.03125 -6.375,12.5625 -6.5625,25.125 v 25.21875 l 6.5625,25.125 6.375,12.5625 12.937504,19.03125 13.031248,12.46875 19.6875,12.65625 12.84375,6.1875 25.96875,6.375 h 25.875 l 25.96875,-6.375 12.84375,-6.1875 19.6875,-12.65625 12.9375,-12.46875 13.03125,-19.03125 6.28125,-12.5625 z"
     id="text8"
     inkscape:label="A (lowercase in Symap)"
     aria-label="l"
     sodipodi:insensitive="true" /></g></svg>
